<svg width="566" height="566" viewBox="0 0 566 566" fill="none" xmlns="http://www.w3.org/2000/svg">
<path d="M267 133.5C267 98.0936 252.935 64.1374 227.899 39.1012C202.863 14.0651 168.906 2.67311e-06 133.5 0C98.0936 -2.67311e-06 64.1374 14.0651 39.1013 39.1012C14.0651 64.1373 5.34622e-06 98.0936 0 133.5H54.0022C54.0022 112.416 62.3778 92.1953 77.2866 77.2865C92.1953 62.3778 112.416 54.0022 133.5 54.0022C154.584 54.0022 174.805 62.3778 189.713 77.2866C204.622 92.1953 212.998 112.416 212.998 133.5H267Z" fill="#84CAFF"/>
<path d="M0 133.5L54 133.5V267H0V133.5Z" fill="#84CAFF"/>
<path d="M213 133.5H267V267H213V133.5Z" fill="#84CAFF"/>
<path d="M-1.16709e-05 432.5C-8.57561e-06 467.906 14.0651 501.863 39.1012 526.899C64.1373 551.935 98.0936 566 133.5 566C168.906 566 202.863 551.935 227.899 526.899C252.935 501.863 267 467.906 267 432.5L212.998 432.5C212.998 453.584 204.622 473.805 189.713 488.713C174.805 503.622 154.584 511.998 133.5 511.998C112.416 511.998 92.1953 503.622 77.2865 488.713C62.3778 473.805 54.0022 453.584 54.0022 432.5L-1.16709e-05 432.5Z" fill="#FEA3B4"/>
<path d="M267 432.5L213 432.5L213 299L267 299L267 365.75L267 432.5Z" fill="#FEA3B4"/>
<path d="M54 432.5L-1.16709e-05 432.5L-2.33419e-05 299L54 299L54 432.5Z" fill="#FEA3B4"/>
<path d="M566 432.5C566 397.094 551.935 363.137 526.899 338.101C501.863 313.065 467.906 299 432.5 299C397.094 299 363.137 313.065 338.101 338.101C313.065 363.137 299 397.094 299 432.5H353.002C353.002 411.416 361.378 391.195 376.287 376.287C391.195 361.378 411.416 353.002 432.5 353.002C453.584 353.002 473.805 361.378 488.713 376.287C503.622 391.195 511.998 411.416 511.998 432.5H566Z" fill="#BDB4FE"/>
<path d="M299 432.5L353 432.5V566H299V432.5Z" fill="#BDB4FE"/>
<path d="M512 432.5H566V566H512V432.5Z" fill="#BDB4FE"/>
<path d="M566 133.5C566 207.23 506.23 267 432.5 267C358.77 267 299 207.23 299 133.5C299 59.77 358.77 0 432.5 0C506.23 0 566 59.77 566 133.5ZM353.021 133.5C353.021 177.395 388.605 212.979 432.5 212.979C476.395 212.979 511.979 177.395 511.979 133.5C511.979 89.6052 476.395 54.0215 432.5 54.0215C388.605 54.0215 353.021 89.6052 353.021 133.5Z" fill="#FEC84B"/>
</svg>
