<svg width="24" height="24" viewBox="0 0 24 24" fill="none" xmlns="http://www.w3.org/2000/svg">
<path d="M2 9.2601C2 13.0081 6.02 16.9711 8.962 19.3701C10.294 20.4581 10.96 21.0001 12 21.0001C13.04 21.0001 13.706 20.4571 15.038 19.3701C17.981 16.9721 22 13.0091 22 9.2601C22 3.3501 16.5 0.663097 12 5.5001C7.5 0.663097 2 3.3491 2 9.2601Z" fill="#FEA3B4"/>
<path d="M10.093 10.747C10.1817 10.6196 10.2583 10.5113 10.323 10.422C10.379 10.519 10.442 10.632 10.517 10.77L12.227 13.879C12.393 14.181 12.557 14.477 12.72 14.692C12.895 14.922 13.202 15.238 13.695 15.247C14.188 15.256 14.508 14.953 14.691 14.729C14.863 14.521 15.036 14.231 15.214 13.935L15.269 13.843C15.49 13.475 15.629 13.245 15.752 13.079C15.865 12.925 15.931 12.875 15.98 12.848C16.029 12.821 16.105 12.79 16.295 12.771C16.501 12.751 16.769 12.751 17.199 12.751H18C18.1989 12.751 18.3897 12.672 18.5303 12.5313C18.671 12.3907 18.75 12.1999 18.75 12.001C18.75 11.8021 18.671 11.6113 18.5303 11.4706C18.3897 11.33 18.1989 11.251 18 11.251H17.166C16.779 11.251 16.436 11.251 16.15 11.278C15.8311 11.2988 15.5206 11.3889 15.24 11.542C14.9647 11.7037 14.7279 11.9235 14.546 12.186C14.375 12.418 14.199 12.711 14 13.043L13.952 13.123C13.865 13.267 13.793 13.387 13.728 13.491L13.518 13.114L11.809 10.006C11.655 9.72598 11.502 9.44598 11.346 9.24198C11.176 9.01798 10.884 8.72198 10.416 8.69698C9.949 8.67198 9.627 8.93398 9.434 9.13898C9.257 9.32498 9.074 9.58698 8.891 9.84898L8.581 10.291C8.354 10.615 8.211 10.817 8.088 10.963C8.02721 11.0442 7.95153 11.1131 7.865 11.166C7.819 11.19 7.747 11.216 7.572 11.232C7.382 11.25 7.134 11.25 6.738 11.25H6C5.80109 11.25 5.61032 11.329 5.46967 11.4696C5.32902 11.6103 5.25 11.8011 5.25 12C5.25 12.1989 5.32902 12.3897 5.46967 12.5303C5.61032 12.671 5.80109 12.75 6 12.75H6.768C7.125 12.75 7.442 12.75 7.708 12.726C7.998 12.7 8.279 12.641 8.558 12.496C8.838 12.351 9.047 12.153 9.234 11.932C9.407 11.727 9.588 11.468 9.793 11.175L10.093 10.747Z" fill="#414651"/>
</svg>
