<svg width="24" height="24" viewBox="0 0 24 24" fill="none" xmlns="http://www.w3.org/2000/svg">
<path d="M18 12H17.199C16.369 12 15.954 12 15.61 12.195C15.266 12.389 15.053 12.745 14.626 13.456L14.596 13.508C14.198 14.171 13.999 14.502 13.71 14.497C13.421 14.492 13.234 14.153 12.861 13.475L11.174 10.408C10.827 9.776 10.654 9.46 10.376 9.445C10.099 9.43 9.892 9.725 9.479 10.315L9.196 10.72C8.756 11.347 8.537 11.66 8.212 11.83C7.886 12 7.503 12 6.738 12H6" stroke="#414651" stroke-width="1.5" stroke-linecap="round"/>
<path d="M12 5.50005L11.45 6.01005C11.5202 6.08578 11.6053 6.14619 11.6999 6.1875C11.7946 6.22882 11.8967 6.25014 12 6.25014C12.1033 6.25014 12.2054 6.22882 12.3001 6.1875C12.3947 6.14619 12.4798 6.08578 12.55 6.01005L12 5.50005ZM9.436 18.79C7.986 17.607 6.293 16.058 4.969 14.361C3.63 12.646 2.75 10.883 2.75 9.26105H1.25C1.25 11.387 2.38 13.481 3.786 15.284C5.207 17.104 6.996 18.736 8.488 19.953L9.436 18.79ZM2.75 9.26105C2.75 6.53105 4.008 4.70505 5.6 4.04205C7.173 3.38805 9.353 3.75505 11.45 6.01005L12.55 4.98805C10.147 2.40705 7.327 1.69905 5.024 2.65705C2.742 3.60705 1.25 6.08005 1.25 9.26105H2.75ZM15.512 19.953C17.005 18.736 18.792 17.104 20.214 15.282C21.621 13.479 22.75 11.386 22.75 9.26005H21.25C21.25 10.882 20.37 12.645 19.031 14.36C17.707 16.057 16.014 17.607 14.564 18.79L15.512 19.953ZM22.75 9.26005C22.75 6.08005 21.258 3.60605 18.976 2.65705C16.673 1.69905 13.853 2.40705 11.451 4.98705L12.549 6.01005C14.647 3.75505 16.827 3.38805 18.399 4.04205C19.992 4.70405 21.25 6.53005 21.25 9.26005H22.75ZM8.488 19.953C9.758 20.989 10.64 21.75 12 21.75V20.25C11.278 20.25 10.829 19.925 9.436 18.79L8.488 19.953ZM14.564 18.789C13.171 19.926 12.722 20.25 12 20.25V21.75C13.359 21.75 14.241 20.989 15.512 19.953L14.564 18.789Z" fill="#FEA3B4"/>
</svg>
