<svg width="24" height="24" viewBox="0 0 24 24" fill="none" xmlns="http://www.w3.org/2000/svg">
<path opacity="0.5" d="M2 12.204C2 9.915 2 8.771 2.52 7.823C3.038 6.874 3.987 6.286 5.884 5.108L7.884 3.867C9.889 2.622 10.892 2 12 2C13.108 2 14.11 2.622 16.116 3.867L18.116 5.108C20.013 6.286 20.962 6.874 21.481 7.823C22 8.772 22 9.915 22 12.203V13.725C22 17.625 22 19.576 20.828 20.788C19.656 22 17.771 22 14 22H10C6.229 22 4.343 22 3.172 20.788C2.001 19.576 2 17.626 2 13.725V12.204Z" fill="#DC6803"/>
<path d="M9.44697 15.398C9.28718 15.2795 9.08683 15.2292 8.89001 15.2584C8.69319 15.2876 8.51602 15.3937 8.39747 15.5535C8.27892 15.7133 8.2287 15.9136 8.25786 16.1105C8.28702 16.3073 8.39318 16.4845 8.55297 16.603C9.5485 17.3465 10.7574 17.7488 12 17.75C13.2425 17.7488 14.4514 17.3465 15.447 16.603C15.6069 16.4845 15.7132 16.3072 15.7424 16.1103C15.7717 15.9134 15.7215 15.7129 15.603 15.553C15.4844 15.3931 15.3072 15.2868 15.1103 15.2575C14.9134 15.2283 14.7129 15.2785 14.553 15.397C13.8162 15.9491 12.9207 16.2483 12 16.25C11.0794 16.2486 10.1839 15.9498 9.44697 15.398Z" fill="#7A271A"/>
</svg>
