<svg width="60" height="61" viewBox="0 0 60 61" fill="none" xmlns="http://www.w3.org/2000/svg">
<path d="M5 23.8425C5 36 15.05 42.4775 22.405 48.2775C25 50.3225 27.5 52.25 30 52.25C32.5 52.25 35 50.325 37.595 48.275C44.9525 42.48 55 36 55 23.845C55 11.69 41.25 3.06248 30 14.7525C18.75 3.06248 5 11.685 5 23.8425Z" fill="#FFEAD5"/>
<path d="M8.66663 21.3197C8.66663 32.6667 18.0466 38.7124 24.9113 44.1257C27.3333 46.0344 29.6666 47.8334 32 47.8334C34.3333 47.8334 36.6666 46.0367 39.0886 44.1234C45.9556 38.7147 55.3333 32.6667 55.3333 21.3221C55.3333 9.97741 42.5 1.92508 32 12.8357C21.5 1.92508 8.66663 9.97274 8.66663 21.3197Z" fill="#FDDCAB"/>
<path d="M31.6666 25.8889C33.6303 25.8889 35.2222 24.2971 35.2222 22.3334C35.2222 20.3697 33.6303 18.7778 31.6666 18.7778C29.703 18.7778 28.1111 20.3697 28.1111 22.3334C28.1111 24.2971 29.703 25.8889 31.6666 25.8889Z" fill="#FFF6ED"/>
<path opacity="0.5" d="M37.0845 30.361C36.7067 30.3334 36.2436 30.3334 35.6667 30.3334C34.2 30.3334 33.4667 30.3334 33.0116 30.7894C32.5556 31.2446 32.5556 31.9779 32.5556 33.4446C32.5556 34.481 32.5556 35.1512 32.7165 35.6161C32.3751 35.6499 32.0252 35.6668 31.6667 35.6668C28.2302 35.6668 25.4445 34.0757 25.4445 32.1112C25.4445 30.1468 28.2302 28.5557 31.6667 28.5557C33.9893 28.5557 36.0151 29.2828 37.0845 30.361Z" fill="#FFF6ED"/>
<path fill-rule="evenodd" clip-rule="evenodd" d="M33.0115 36.0995C33.4667 36.5555 34.2 36.5555 35.6667 36.5555C37.1333 36.5555 37.8667 36.5555 38.3218 36.0995C38.7778 35.6444 38.7778 34.911 38.7778 33.4444C38.7778 31.9777 38.7778 31.2444 38.3218 30.7893C37.8667 30.3333 37.1333 30.3333 35.6667 30.3333C34.2 30.3333 33.4667 30.3333 33.0115 30.7893C32.5555 31.2444 32.5555 31.9777 32.5555 33.4444C32.5555 34.911 32.5555 35.6444 33.0115 36.0995ZM34.8018 34.7573C34.1778 34.3101 33.4444 33.7848 33.4444 32.8755C33.4444 31.871 34.6667 31.159 35.6667 32.1244C36.6667 31.1581 37.8889 31.871 37.8889 32.8755C37.8889 33.7848 37.1555 34.3101 36.5315 34.7573L36.3422 34.8941C36.1111 35.063 35.8889 35.2221 35.6667 35.2221C35.4444 35.2221 35.2222 35.0621 34.9911 34.8933L34.8018 34.7573Z" fill="#FFF6ED"/>
</svg>
