<svg width="47" height="45" viewBox="0 0 47 45" fill="none" xmlns="http://www.w3.org/2000/svg">
<rect y="2" width="43" height="43" rx="10" fill="#D1E9FF"/>
<rect x="4" width="43" height="43" rx="10" fill="#B2DDFF"/>
<path d="M32 30C33.6569 30 35 28.6569 35 27C35 25.3431 33.6569 24 32 24C30.3431 24 29 25.3431 29 27C29 28.6569 30.3431 30 32 30Z" fill="#EFF8FF"/>
<path d="M25 12.25C25.1989 12.25 25.3897 12.329 25.5303 12.4697C25.671 12.6103 25.75 12.8011 25.75 13V13.251C26.681 13.2598 27.5754 13.6145 28.2593 14.2463C28.9432 14.8781 29.3676 15.7416 29.45 16.669C29.464 16.835 29.464 17.023 29.464 17.298V18.52C29.4641 19.5003 29.2712 20.471 28.8961 21.3767C28.5211 22.2823 27.9713 23.1053 27.2782 23.7985C26.5851 24.4917 25.7622 25.0416 24.8566 25.4167C23.9509 25.7919 22.9803 25.985 22 25.985C19.9446 25.985 17.9733 25.1685 16.5199 23.7151C15.0665 22.2617 14.25 20.2904 14.25 18.235V17.298C14.25 17.023 14.25 16.835 14.265 16.67C14.3426 15.793 14.7262 14.9713 15.3488 14.3488C15.9713 13.7262 16.793 13.3426 17.67 13.265C17.863 13.252 18.0565 13.247 18.25 13.25V13C18.25 12.8011 18.329 12.6103 18.4697 12.4697C18.6103 12.329 18.8011 12.25 19 12.25C19.1989 12.25 19.3897 12.329 19.5303 12.4697C19.671 12.6103 19.75 12.8011 19.75 13V15C19.75 15.1989 19.671 15.3897 19.5303 15.5303C19.3897 15.671 19.1989 15.75 19 15.75C18.8011 15.75 18.6103 15.671 18.4697 15.5303C18.329 15.3897 18.25 15.1989 18.25 15V14.75C17.987 14.75 17.884 14.751 17.802 14.759C17.2758 14.8055 16.7828 15.0357 16.4093 15.4093C16.0357 15.7828 15.8055 16.2758 15.759 16.802C15.751 16.892 15.75 17.008 15.75 17.337V18.235C15.75 19.8926 16.4085 21.4823 17.5806 22.6544C18.7527 23.8265 20.3424 24.485 22 24.485C22.7832 24.485 23.5587 24.3307 24.2823 24.031C25.0059 23.7313 25.6634 23.292 26.2172 22.7382C26.771 22.1844 27.2103 21.5269 27.51 20.8033C27.8097 20.0797 27.964 19.3042 27.964 18.521V17.337C27.964 17.008 27.964 16.892 27.956 16.802C27.9066 16.2481 27.6539 15.7321 27.2465 15.3535C26.8392 14.975 26.306 14.7607 25.75 14.752V15C25.75 15.1989 25.671 15.3897 25.5303 15.5303C25.3897 15.671 25.1989 15.75 25 15.75C24.8011 15.75 24.6103 15.671 24.4697 15.5303C24.329 15.3897 24.25 15.1989 24.25 15V13C24.25 12.8011 24.329 12.6103 24.4697 12.4697C24.6103 12.329 24.8011 12.25 25 12.25Z" fill="#EFF8FF"/>
<path opacity="0.5" d="M21.25 25.95V28C21.25 29.525 21.8558 30.9875 22.9341 32.0659C24.0125 33.1442 25.475 33.75 27 33.75H27.882C28.7412 33.7499 29.5851 33.5224 30.3281 33.0907C31.071 32.659 31.6864 32.0384 32.112 31.292C32.359 30.86 32.482 30.396 32.542 29.952C32.0409 30.0439 31.5247 30.0068 31.042 29.844C31.0071 30.0909 30.9286 30.3296 30.81 30.549C30.5155 31.0657 30.0894 31.4952 29.5752 31.794C29.0609 32.0927 28.4767 32.2501 27.882 32.25H27C25.8728 32.25 24.7918 31.8022 23.9948 31.0052C23.1978 30.2082 22.75 29.1272 22.75 28V25.948C22.2513 25.9988 21.7488 25.9995 21.25 25.95Z" fill="#EFF8FF"/>
</svg>
