<svg width="24" height="24" viewBox="0 0 24 24" fill="none" xmlns="http://www.w3.org/2000/svg">
<path opacity="0.5" d="M18 8L18.949 8.316C19.939 8.646 20.434 8.811 20.717 9.204C21 9.597 21 10.119 21 11.162V16.829C21 18.119 21 18.765 20.66 19.18C20.545 19.32 20.405 19.44 20.247 19.53C19.782 19.797 19.145 19.69 17.872 19.479C16.616 19.269 15.988 19.165 15.365 19.217C15.1457 19.235 14.929 19.2673 14.715 19.314C14.105 19.448 13.53 19.735 12.381 20.31C10.881 21.06 10.131 21.435 9.333 21.55C9.093 21.5847 8.851 21.602 8.607 21.602C7.8 21.6 7.012 21.337 5.435 20.812L5.051 20.684C4.061 20.354 3.566 20.189 3.283 19.796C3 19.403 3 18.88 3 17.838V12.908C3 11.249 3 10.42 3.488 9.974C3.57351 9.8957 3.6678 9.82758 3.769 9.771C4.347 9.449 5.134 9.711 6.707 10.236" stroke="black" stroke-width="1.5"/>
<path d="M6 7.7C6 4.552 8.686 2 12 2C15.314 2 18 4.552 18 7.7C18 10.824 16.085 14.469 13.097 15.772C12.7507 15.922 12.3774 15.9994 12 15.9994C11.6226 15.9994 11.2493 15.922 10.903 15.772C7.915 14.47 6 10.824 6 7.7Z" stroke="black" stroke-width="1.5"/>
<path d="M12 10C13.1046 10 14 9.10457 14 8C14 6.89543 13.1046 6 12 6C10.8954 6 10 6.89543 10 8C10 9.10457 10.8954 10 12 10Z" stroke="black" stroke-width="1.5"/>
</svg>
