<svg width="24" height="24" viewBox="0 0 24 24" fill="none" xmlns="http://www.w3.org/2000/svg">
<path d="M12 5C12 3.586 12 2.879 12.44 2.44C12.878 2 13.585 2 15 2H16C17.414 2 18.121 2 18.56 2.44C19 2.878 19 3.585 19 5C19 6.415 19 7.121 18.56 7.56C18.122 8 17.415 8 16 8H15C13.586 8 12.879 8 12.44 7.56C12 7.122 12 6.415 12 5ZM19 3.75L20.615 3.077C21.242 2.816 21.555 2.686 21.777 2.834C22 2.982 22 3.322 22 4V6C22 6.678 22 7.018 21.777 7.166C21.555 7.314 21.242 7.184 20.615 6.923L19 6.25V3.75Z" stroke="black" stroke-width="1.5"/>
<path opacity="0.5" d="M16 22H8M12 17V22M22 13H2" stroke="black" stroke-width="1.5" stroke-linecap="round"/>
<path d="M22 10V11C22 13.828 22 15.243 21.121 16.121C20.243 17 18.828 17 16 17H8C5.172 17 3.757 17 2.879 16.121C2 15.243 2 13.828 2 11V9.5C2 6.213 2 4.569 2.908 3.462C3.07409 3.25965 3.25965 3.07409 3.462 2.908C4.57 2 6.212 2 9.5 2" stroke="black" stroke-width="1.5" stroke-linecap="round"/>
</svg>
