<svg width="44" height="20" viewBox="0 0 44 20" fill="none" xmlns="http://www.w3.org/2000/svg">
<path d="M0 9.99613C0 4.47542 4.47542 0 9.99612 0H34.0039C39.5246 0 44 4.47542 44 9.99613C44 15.5168 39.5246 19.9923 34.0039 19.9923H9.99613C4.47542 19.9923 0 15.5168 0 9.99613Z" fill="#F97066"/>
<path d="M9.14453 13.9961V5.35938H9.91797L13.9258 10.8555L14.7344 12.0273H14.7812L14.7578 9.87109V5.35938H15.8125V13.9961H15.0508L11.0664 8.47656L10.2227 7.32812H10.1758L10.1992 9.41406V13.9961H9.14453ZM20.2188 14.0898C19.6367 14.0898 19.1172 13.9531 18.6602 13.6797C18.207 13.4062 17.8496 13.0273 17.5879 12.543C17.3262 12.0547 17.1953 11.4922 17.1953 10.8555C17.1953 10.2305 17.3262 9.68164 17.5879 9.20898C17.8496 8.73242 18.207 8.36133 18.6602 8.0957C19.1172 7.82617 19.6367 7.69141 20.2188 7.69141C20.8047 7.69141 21.3242 7.82617 21.7773 8.0957C22.2344 8.36133 22.5918 8.73242 22.8496 9.20898C23.1113 9.68164 23.2422 10.2305 23.2422 10.8555C23.2422 11.4922 23.1094 12.0547 22.8438 12.543C22.582 13.0273 22.2227 13.4062 21.7656 13.6797C21.3125 13.9531 20.7969 14.0898 20.2188 14.0898ZM20.2188 13.1523C20.6055 13.1523 20.9492 13.0566 21.25 12.8652C21.5508 12.6738 21.7852 12.4062 21.9531 12.0625C22.125 11.7188 22.2109 11.3164 22.2109 10.8555C22.2109 10.4062 22.125 10.0156 21.9531 9.68359C21.7852 9.34766 21.5508 9.08789 21.25 8.9043C20.9492 8.7207 20.6055 8.62891 20.2188 8.62891C19.8359 8.62891 19.4941 8.7207 19.1934 8.9043C18.8926 9.08789 18.6562 9.34766 18.4844 9.68359C18.3125 10.0156 18.2266 10.4062 18.2266 10.8555C18.2266 11.3164 18.3105 11.7188 18.4785 12.0625C18.6504 12.4062 18.8848 12.6738 19.1816 12.8652C19.4824 13.0566 19.8281 13.1523 20.2188 13.1523ZM26.1602 13.9961L23.7109 7.78516H24.8477L26.0898 11.3359L26.6172 12.8008H26.6641L27.1914 11.3359L28.4453 7.78516H29.5703L27.1211 13.9961H26.1602ZM32.0781 14.0898C31.6953 14.0898 31.3496 14.0156 31.041 13.8672C30.7324 13.7188 30.4883 13.5078 30.3086 13.2344C30.1289 12.957 30.0391 12.625 30.0391 12.2383C30.0391 11.8281 30.1504 11.4785 30.373 11.1895C30.5957 10.9004 30.918 10.6816 31.3398 10.5332C31.7617 10.3809 32.2734 10.3047 32.875 10.3047H34.1641V11.1133H32.9453C32.332 11.1133 31.8574 11.2109 31.5215 11.4062C31.1895 11.6016 31.0234 11.8789 31.0234 12.2383C31.0234 12.4453 31.0762 12.623 31.1816 12.7715C31.2871 12.916 31.4277 13.0273 31.6035 13.1055C31.7832 13.1836 31.9805 13.2227 32.1953 13.2227C32.4531 13.2227 32.7188 13.166 32.9922 13.0527C33.2695 12.9355 33.502 12.7676 33.6895 12.5488C33.8809 12.3262 33.9766 12.0547 33.9766 11.7344V11.0898L33.9531 10.7266V10.0352C33.9531 9.93359 33.9453 9.80469 33.9297 9.64844C33.9141 9.48828 33.8672 9.33008 33.7891 9.17383C33.7148 9.01758 33.5879 8.88672 33.4082 8.78125C33.2285 8.67188 32.9766 8.61719 32.6523 8.61719C32.4609 8.61719 32.2539 8.64258 32.0312 8.69336C31.8125 8.74023 31.5977 8.80664 31.3867 8.89258C31.1797 8.97852 30.9961 9.07812 30.8359 9.19141L30.4492 8.28906C30.6562 8.16797 30.8867 8.0625 31.1406 7.97266C31.3984 7.87891 31.6641 7.80664 31.9375 7.75586C32.2148 7.70508 32.4844 7.67969 32.7461 7.67969C33.168 7.67969 33.5176 7.74219 33.7949 7.86719C34.0762 7.99219 34.2988 8.16406 34.4629 8.38281C34.627 8.60156 34.7422 8.85156 34.8086 9.13281C34.8789 9.41016 34.9141 9.70312 34.9141 10.0117V12.1914C34.9141 12.4531 34.9414 12.6602 34.9961 12.8125C35.0547 12.9648 35.1562 13.0703 35.3008 13.1289L35.418 13.1758L35.0312 14.0898L34.8672 14.0195C34.6484 13.9258 34.4609 13.7871 34.3047 13.6035C34.1484 13.4199 34.0703 13.2383 34.0703 13.0586L34.2695 13.1289H33.8828L34.1406 12.9648C33.9883 13.2734 33.7285 13.5391 33.3613 13.7617C32.998 13.9805 32.5703 14.0898 32.0781 14.0898Z" fill="#FDFDFD"/>
</svg>
