<svg width="24" height="24" viewBox="0 0 24 24" fill="none" xmlns="http://www.w3.org/2000/svg">
<path d="M2 6C2 4.93913 2.42143 3.92172 3.17157 3.17157C3.92172 2.42143 4.93913 2 6 2C7.06087 2 8.07828 2.42143 8.82843 3.17157C9.57857 3.92172 10 4.93913 10 6V18C10 19.0609 9.57857 20.0783 8.82843 20.8284C8.07828 21.5786 7.06087 22 6 22C4.93913 22 3.92172 21.5786 3.17157 20.8284C2.42143 20.0783 2 19.0609 2 18V6Z" stroke="black" stroke-width="1.5"/>
<path d="M9.99997 8.24293L13.314 4.92893C14.0641 4.17876 15.0816 3.75732 16.1425 3.75732C17.2034 3.75732 18.2208 4.17876 18.971 4.92893C19.7211 5.67909 20.1426 6.69653 20.1426 7.75743C20.1426 8.81832 19.7211 9.83576 18.971 10.5859L9.30597 20.2499" stroke="black" stroke-width="1.5"/>
<path opacity="0.5" d="M6 22H18C19.0609 22 20.0783 21.5786 20.8284 20.8284C21.5786 20.0783 22 19.0609 22 18C22 16.9391 21.5786 15.9217 20.8284 15.1716C20.0783 14.4214 19.0609 14 18 14H15.5M7 18C7 18.2652 6.89464 18.5196 6.70711 18.7071C6.51957 18.8946 6.26522 19 6 19C5.73478 19 5.48043 18.8946 5.29289 18.7071C5.10536 18.5196 5 18.2652 5 18C5 17.7348 5.10536 17.4804 5.29289 17.2929C5.48043 17.1054 5.73478 17 6 17C6.26522 17 6.51957 17.1054 6.70711 17.2929C6.89464 17.4804 7 17.7348 7 18Z" stroke="black" stroke-width="1.5"/>
</svg>
