<svg width="24" height="24" viewBox="0 0 24 24" fill="none" xmlns="http://www.w3.org/2000/svg">
<path opacity="0.5" d="M2 12H22M16 12C16 13.313 15.896 14.614 15.695 15.827C15.495 17.04 15.2 18.142 14.828 19.071C14.457 20 14.016 20.736 13.531 21.239C13.045 21.741 12.525 22 12 22C11.475 22 10.955 21.741 10.47 21.239C9.984 20.736 9.543 19.999 9.172 19.071C8.8 18.142 8.505 17.041 8.304 15.827C8.09891 14.5617 7.99724 13.2818 8 12C8 10.687 8.103 9.386 8.304 8.173C8.505 6.96 8.8 5.858 9.172 4.929C9.543 4 9.984 3.264 10.469 2.761C10.955 2.26 11.475 2 12 2C12.525 2 13.045 2.259 13.53 2.761C14.016 3.264 14.457 4.001 14.828 4.929C15.2 5.858 15.495 6.959 15.695 8.173C15.897 9.386 16 10.687 16 12Z" stroke="black" stroke-width="1.5" stroke-linecap="round"/>
<path d="M22 12C22 13.3133 21.7414 14.6137 21.2388 15.827C20.7362 17.0404 19.9996 18.1428 19.0709 19.0714C18.1423 20.0001 17.0399 20.7367 15.8265 21.2393C14.6132 21.7418 13.3128 22.0005 11.9995 22.0005C10.6862 22.0005 9.38581 21.7418 8.1725 21.2393C6.95918 20.7367 5.85673 20.0001 4.9281 19.0714C3.99947 18.1428 3.26284 17.0404 2.76027 15.827C2.25769 14.6137 1.99902 13.3133 1.99902 12C1.99902 9.34771 3.05264 6.80405 4.9281 4.92859C6.80356 3.05313 9.34723 1.99951 11.9995 1.99951C14.6518 1.99951 17.1955 3.05313 19.0709 4.92859C20.9464 6.80405 22 9.34771 22 12Z" stroke="black" stroke-width="1.5"/>
</svg>
