<svg width="24" height="24" viewBox="0 0 24 24" fill="none" xmlns="http://www.w3.org/2000/svg">
<path d="M4 3.5C4 3.034 4 2.801 4.076 2.617C4.17771 2.37246 4.37227 2.17826 4.617 2.077C4.801 2 5.034 2 5.5 2H14.5C14.966 2 15.199 2 15.383 2.076C15.6275 2.17771 15.8217 2.37227 15.923 2.617C16 2.801 16 3.034 16 3.5C16 3.966 16 4.199 15.924 4.383C15.8223 4.62754 15.6277 4.82174 15.383 4.923C15.199 5 14.966 5 14.5 5H5.5C5.034 5 4.801 5 4.617 4.924C4.37246 4.82229 4.17826 4.62773 4.077 4.383C4 4.199 4 3.966 4 3.5Z" stroke="#252B37" stroke-width="1.5"/>
<path opacity="0.5" d="M2.5 18H10.5M2.5 10H17.5" stroke="#252B37" stroke-width="1.5" stroke-linecap="round"/>
<path d="M10.5 22H6.957C6.386 22 6.1 22 5.83 21.963C5.02676 21.853 4.27593 21.5014 3.677 20.955C3.476 20.771 3.293 20.551 2.927 20.113C2.32793 19.3941 1.99991 18.4878 2 17.552V10.922C2.00019 10.3224 2.13519 9.73049 2.39501 9.19009C2.65482 8.64968 3.03281 8.17461 3.501 7.8L5.904 5.878C6.447 5.444 6.718 5.226 7.04 5.114C7.36 5 7.708 5 8.403 5H11.643C12.343 5 12.694 5 13.018 5.115C13.342 5.229 13.615 5.45 14.159 5.891L16.517 7.799C16.9804 8.17422 17.3541 8.64832 17.6107 9.18659C17.8673 9.72486 18.0003 10.3137 18 10.91V12.5M10 12V16M8 14H12" stroke="#252B37" stroke-width="1.5" stroke-linecap="round"/>
<path d="M14.773 16.773C14.773 16.773 15.765 16.983 16.891 18.109C18.017 19.235 18.227 20.227 18.227 20.227M19.264 15.737C20.218 16.69 20.249 18.206 19.333 19.122L17.122 21.332C16.206 22.249 14.69 22.218 13.736 21.264C12.782 20.31 12.751 18.794 13.667 17.878L15.878 15.668C16.794 14.751 18.31 14.782 19.264 15.736V15.737Z" stroke="#252B37" stroke-width="1.5"/>
</svg>
